<?xml version="1.0" encoding="UTF-8"?>
<!DOCTYPE svg PUBLIC "-//W3C//DTD SVG 1.1//EN" "http://www.w3.org/Graphics/SVG/1.1/DTD/svg11.dtd">
<!-- Creator: CorelDRAW 2020 (64 Bit) -->
<svg xmlns="http://www.w3.org/2000/svg" xml:space="preserve" width="18.5208mm" height="21.1666mm" version="1.1" style="shape-rendering:geometricPrecision; text-rendering:geometricPrecision; image-rendering:optimizeQuality; fill-rule:evenodd; clip-rule:evenodd"
viewBox="0 0 1852.08 2116.66"
 xmlns:xlink="http://www.w3.org/1999/xlink"
 xmlns:xodm="http://www.corel.com/coreldraw/odm/2003">
 <defs>
  <style type="text/css">
   <![CDATA[
    .fil2 {fill:#313541}
    .fil1 {fill:#EFAF2A}
    .fil0 {fill:#F9BA29}
    .fil3 {fill:white}
    .fil4 {fill:white}
   ]]>
  </style>
 </defs>
 <g id="Camada_x0020_1">
  <metadata id="CorelCorpID_0Corel-Layer"/>
  <g id="_1608565590528">
   <path class="fil0" d="M568.17 733.18c-1.58,24.13 -3.42,52.58 -8.06,73.64l-207.38 0.14c-34.88,-0.06 -58.46,6.05 -51.83,49.06 21.02,136.48 103.06,247.72 197.4,323.19 65.02,52.03 91.02,43.64 129.28,77.94 32.44,29.09 -6.49,60.91 -20.99,59.17 -10.35,-1.23 -26.06,-14.33 -28.96,-22.09 -6.58,-17.61 6.95,-30.79 -10.4,-42.96 -52.13,-36.58 -67.71,65.78 -5.04,106.55 81.48,53.02 131.77,-50.8 132.26,-51.23 9.76,2.57 37.14,38.46 45.58,47.55 70.05,72.41 188.55,199.03 109.48,304.24 -39.52,52.58 -108.99,9.86 -100.93,84.01 22.8,6.19 315.9,3.89 359.9,2.62 4.5,-26.14 -6.7,-48.92 -37.32,-53.84 -53.19,-8.55 -84.43,-42.64 -90.14,-97.54 -8.13,-77.99 87.3,-188.46 134.7,-237.82 65.06,-67.74 38.54,-56.38 67.35,-19.2 50.98,65.81 146.01,27.84 152.89,-42.75 3.75,-38.47 -16.19,-62.2 -45.85,-41.53 -13.73,9.58 -5.83,24.89 -9.48,41.22 -1.89,8.42 -19.3,23.01 -28.76,23.92 -18.36,1.77 -71.13,-44.11 4.96,-80.75 45.85,-22.09 51.37,-18.04 101.41,-57.3 102.02,-80.03 172.09,-179.03 199.28,-322.82 7.5,-39.64 -12.93,-49.18 -49.52,-49.42 -70.05,-0.46 -140.09,0.1 -210.13,0.07 -5.75,-44.83 -3.81,-77.63 -27.74,-82.79 -146.54,-31.52 -257.88,-41.01 -410.37,-36.94 -51.77,1.38 -267.95,25.75 -291.59,45.66zm667.43 452c13.55,0.36 79.71,-42.73 91.8,-51.95 55.17,-42.08 99.94,-98.09 132.17,-161.11 8.26,-16.15 40.44,-90.7 39.27,-107.71 -22.29,-1.67 -187.95,-3.26 -198.97,0.84 -3.98,24.09 -3.11,62.59 -5.55,89.21 -2.34,25.79 -7.6,58.68 -12.83,84.2 -8.32,40.55 -18.81,74.75 -32.28,113.14 -4.66,13.29 -10.4,22.21 -13.61,33.38zm-612.2 0.46c-6.28,-25.46 -30.08,-55.07 -46.28,-147.42 -5.03,-28.68 -8.47,-56.23 -12.89,-83.76 -1.24,-7.65 -5.38,-95.87 -9.66,-89.12l-7.75 -2.02c-2.58,-0.25 -10.19,0.1 -13.29,0.13l-175.32 -0.38c1.78,22 28.81,91.98 38.38,109.34 45.72,83.1 93.62,140.08 176.32,189.49 7.25,4.32 42.39,22.93 50.49,23.74z"/>
   <path class="fil1" d="M855.89 1705.75c99.29,-37.76 74.98,-141.8 173.44,-284.66 41.58,-60.31 109.27,-128.15 180.4,-245.06 55.66,-91.49 86.29,-368.75 55.51,-420.71 -7.1,-5.04 -50.94,-6.3 -66.18,-4.43 13,55.58 -7.55,277.91 -30.03,337.41 -50.28,133.11 -183,420.92 -328.61,195.16 -110.7,-171.64 -96.87,-355.64 -99.17,-546.86 -24.25,-3.13 -139.58,7.71 -141.59,32.09 -39.44,480.39 195.82,541.5 278.81,719.09 30.27,64.78 41.43,167.87 -22.58,217.97z"/>
   <path class="fil2" d="M647.62 1815.72c-4.6,12.94 -1.41,149.15 -1.13,189.05 68.6,0.7 557.45,2.67 562.58,-1.55 4.08,-3.35 2.82,-7.25 2.74,-19.17 -0.06,-8.1 -0.07,-16.21 -0.05,-24.31l-0.38 -144.47c-13.59,-3.14 -553.98,-2.05 -563.76,0.45z"/>
   <path class="fil3" d="M998.22 1310.18c14.6,-1.71 39.14,-34.59 48.16,-45.77 48.02,-59.51 72.6,-106.2 97.94,-184.42 14.84,-45.81 27.36,-104.89 31.92,-154.45 2.29,-24.94 5.6,-166.48 -0.88,-182.8 -9.17,-6.84 -59.8,-9.66 -75.26,-11.03 -20.63,-1.84 -62.31,-7.62 -80.64,-5.63l11.94 144.57c10.29,190.97 9.41,288.07 -33.18,439.53z"/>
   <polygon class="fil0" points="768.6,223.84 848.36,301.8 828.03,410.08 928.13,362.75 1027.63,410.36 1010.3,299.59 1086.72,222.43 975.21,199.48 930.36,110.79 882.54,198.85 "/>
   <path class="fil2" d="M713.9 1797.25l165.75 1.59c76.05,-0.18 194.31,2.09 265.24,-1.03l1.87 -41.54 -432.46 -0.1c-3.34,9.19 -3.87,33.12 -0.4,41.08z"/>
   <polygon class="fil0" points="842.46,590.61 869.79,604.91 889.21,628.85 898.38,602.8 923.63,590.61 899.54,575.23 884.06,548.36 868.08,574.72 "/>
   <path class="fil3" d="M1031.89 1695.17c-7.52,-9.54 -26.32,-11.31 -42.46,-34.84 -12.87,-18.77 -12.5,-33.03 -19.39,-56.2 -10.75,13.08 -11.03,53.9 -3.14,72.12 5.32,12.3 7.75,20.18 22.81,20.84 12.2,0.54 33.4,3.26 42.18,-1.92z"/>
   <polygon class="fil0" points="1194.17,365.05 1262.8,432.13 1245.31,525.32 1331.46,484.59 1417.08,525.56 1402.17,430.24 1467.93,363.83 1371.97,344.08 1333.37,267.76 1292.22,343.53 "/>
   <polygon class="fil0" points="1518.98,599.89 1580.71,660.23 1564.98,744.04 1642.46,707.41 1719.47,744.26 1706.06,658.52 1765.21,598.8 1678.9,581.04 1644.19,512.39 1607.17,580.54 "/>
   <polygon class="fil0" points="86.87,599.89 148.6,660.23 132.87,744.04 210.35,707.41 287.36,744.26 273.95,658.52 333.1,598.8 246.79,581.04 212.07,512.39 175.06,580.54 "/>
   <polygon class="fil0" points="379.28,365.05 447.92,432.13 430.43,525.32 516.57,484.59 602.2,525.56 587.29,430.24 653.05,363.83 557.09,344.08 518.49,267.76 477.34,343.53 "/>
   <polygon class="fil4" points="914.17,774.23 937.94,786.66 954.83,807.47 962.8,784.83 984.76,774.23 963.81,760.85 950.35,737.48 936.45,760.4 "/>
  </g>
 </g>
</svg>
