<?xml version="1.0" encoding="UTF-8"?>
<!DOCTYPE svg PUBLIC "-//W3C//DTD SVG 1.1//EN" "http://www.w3.org/Graphics/SVG/1.1/DTD/svg11.dtd">
<!-- Creator: CorelDRAW 2020 (64 Bit) -->
<svg xmlns="http://www.w3.org/2000/svg" xml:space="preserve" width="13.229mm" height="14.552mm" version="1.1" style="shape-rendering:geometricPrecision; text-rendering:geometricPrecision; image-rendering:optimizeQuality; fill-rule:evenodd; clip-rule:evenodd"
viewBox="0 0 1322.9 1455.2"
 xmlns:xlink="http://www.w3.org/1999/xlink"
 xmlns:xodm="http://www.corel.com/coreldraw/odm/2003">
 <defs>
  <style type="text/css">
   <![CDATA[
    .fil3 {fill:#313541}
    .fil1 {fill:#B66844}
    .fil0 {fill:#D98255}
    .fil2 {fill:white}
   ]]>
  </style>
 </defs>
 <g id="Camada_x0020_1">
  <metadata id="CorelCorpID_0Corel-Layer"/>
  <g id="_1608718955072">
   <path class="fil0" d="M291.94 100.52c-1.61,24.67 -3.49,53.78 -8.24,75.33l-212.13 0.13c-35.67,-0.05 -59.79,6.2 -53,50.19 21.5,139.6 105.42,253.38 201.91,330.59 66.5,53.2 93.1,44.62 132.23,79.71 33.18,29.76 -6.64,62.3 -21.47,60.53 -10.59,-1.27 -26.64,-14.66 -29.61,-22.61 -6.73,-18.01 7.11,-31.48 -10.64,-43.94 -53.32,-37.42 -69.27,67.29 -5.18,108.99 83.36,54.23 134.8,-51.96 135.3,-52.39 9.99,2.61 37.99,39.34 46.62,48.62 71.65,74.07 192.87,203.59 111.98,311.21 -40.41,53.77 -111.48,10.08 -103.23,85.92 23.31,6.32 323.12,3.98 368.13,2.68 4.6,-26.73 -6.86,-50.03 -38.18,-55.07 -54.4,-8.75 -86.36,-43.62 -92.21,-99.77 -8.3,-79.77 89.31,-192.76 137.79,-243.25 66.56,-69.3 39.43,-57.68 68.89,-19.64 52.14,67.31 149.35,28.46 156.39,-43.73 3.83,-39.35 -16.56,-63.62 -46.9,-42.47 -14.05,9.79 -5.96,25.45 -9.71,42.15 -1.92,8.61 -19.73,23.53 -29.4,24.46 -18.78,1.82 -72.75,-45.11 5.06,-82.6 46.91,-22.58 52.55,-18.45 103.73,-58.59 104.36,-81.86 176.04,-183.14 203.84,-330.21 7.66,-40.54 -13.22,-50.31 -50.65,-50.55 -71.65,-0.47 -143.3,0.11 -214.93,0.07 -5.89,-45.86 -3.91,-79.4 -28.39,-84.68 -149.87,-32.24 -263.76,-41.94 -419.73,-37.78 -52.97,1.41 -274.08,26.34 -298.27,46.7zm682.69 462.33c13.86,0.37 81.53,-43.7 93.91,-53.13 56.43,-43.05 102.21,-100.34 135.17,-164.8 8.46,-16.53 41.37,-92.77 40.18,-110.17 -22.81,-1.71 -192.25,-3.34 -203.51,0.86 -4.08,24.64 -3.19,64.02 -5.68,91.25 -2.4,26.38 -7.79,60.03 -13.13,86.12 -8.51,41.49 -19.24,76.46 -33.01,115.73 -4.77,13.6 -10.64,22.72 -13.93,34.14zm-626.18 0.48c-6.44,-26.06 -30.79,-56.33 -47.34,-150.8 -5.15,-29.32 -8.68,-57.51 -13.2,-85.66 -1.26,-7.84 -5.5,-98.07 -9.88,-91.16l-7.93 -2.08c-2.63,-0.25 -10.42,0.09 -13.6,0.14l-179.3 -0.4c1.8,22.51 29.45,94.08 39.24,111.84 46.77,85.02 95.76,143.29 180.35,193.83 7.41,4.42 43.36,23.46 51.66,24.29z"/>
   <path class="fil1" d="M586.24 1095.32c101.56,-38.62 76.7,-145.04 177.41,-291.16 42.53,-61.7 111.77,-131.09 184.52,-250.67 56.93,-93.58 88.27,-377.18 56.78,-430.33 -7.26,-5.15 -52.1,-6.44 -67.7,-4.53 13.31,56.86 -7.71,284.27 -30.7,345.13 -51.44,136.15 -187.2,430.54 -336.13,199.61 -113.23,-175.55 -99.08,-363.76 -101.43,-559.35 -24.81,-3.2 -142.78,7.88 -144.83,32.82 -40.35,491.38 200.3,553.88 285.18,735.53 30.97,66.26 42.38,171.71 -23.1,222.95z"/>
   <path class="fil2" d="M731.83 690.71c14.92,-1.75 40.03,-35.38 49.26,-46.82 49.11,-60.87 74.26,-108.63 100.18,-188.63 15.18,-46.86 27.98,-107.29 32.65,-157.98 2.34,-25.51 5.73,-170.29 -0.91,-186.98 -9.38,-7 -61.16,-9.88 -76.97,-11.29 -21.1,-1.88 -63.74,-7.78 -82.49,-5.75l12.21 147.88c10.53,195.33 9.63,294.65 -33.93,449.57z"/>
   <path class="fil2" d="M766.27 1084.51c-7.7,-9.77 -26.93,-11.57 -43.44,-35.64 -13.16,-19.2 -12.78,-33.79 -19.83,-57.49 -10.99,13.38 -11.28,55.13 -3.21,73.77 5.45,12.58 7.93,20.64 23.33,21.32 12.48,0.55 34.17,3.33 43.15,-1.96z"/>
   <path class="fil3" d="M363.27 1207.81c-4.7,13.24 -1.45,152.56 -1.16,193.37 70.18,0.72 570.2,2.74 575.45,-1.58 4.17,-3.43 2.88,-7.42 2.8,-19.61 -0.06,-8.29 -0.07,-16.58 -0.05,-24.87l-0.39 -147.78c-13.9,-3.2 -566.65,-2.09 -576.65,0.47z"/>
   <path class="fil3" d="M431.07 1188.92l169.53 1.63c77.79,-0.2 198.76,2.13 271.31,-1.06l1.91 -42.49 -442.35 -0.1c-3.42,9.39 -3.96,33.88 -0.4,42.02z"/>
  </g>
 </g>
</svg>
