<?xml version="1.0" encoding="UTF-8"?>
<!DOCTYPE svg PUBLIC "-//W3C//DTD SVG 1.1//EN" "http://www.w3.org/Graphics/SVG/1.1/DTD/svg11.dtd">
<!-- Creator: CorelDRAW 2020 (64 Bit) -->
<svg xmlns="http://www.w3.org/2000/svg" xml:space="preserve" width="13.229mm" height="14.552mm" version="1.1" style="shape-rendering:geometricPrecision; text-rendering:geometricPrecision; image-rendering:optimizeQuality; fill-rule:evenodd; clip-rule:evenodd"
viewBox="0 0 1322.9 1455.2"
 xmlns:xlink="http://www.w3.org/1999/xlink"
 xmlns:xodm="http://www.corel.com/coreldraw/odm/2003">
 <defs>
  <style type="text/css">
   <![CDATA[
    .fil3 {fill:#313541}
    .fil1 {fill:#B3B3B3}
    .fil0 {fill:#CCCCCC}
    .fil2 {fill:white}
   ]]>
  </style>
 </defs>
 <g id="Camada_x0020_1">
  <metadata id="CorelCorpID_0Corel-Layer"/>
  <g id="_1608561202464">
   <path class="fil0" d="M291.97 113.79c-1.62,24.68 -3.51,53.79 -8.24,75.32l-212.12 0.15c-35.67,-0.06 -59.78,6.18 -53.01,50.18 21.5,139.59 105.41,253.36 201.91,330.56 66.5,53.2 93.09,44.62 132.21,79.71 33.17,29.75 -6.62,62.3 -21.46,60.52 -10.59,-1.26 -26.65,-14.66 -29.61,-22.6 -6.74,-18 7.1,-31.49 -10.64,-43.94 -53.32,-37.42 -69.26,67.29 -5.17,108.98 83.35,54.22 134.78,-51.96 135.29,-52.39 9.97,2.62 37.98,39.33 46.61,48.63 71.64,74.06 192.86,203.57 111.98,311.18 -40.42,53.76 -111.48,10.09 -103.23,85.93 23.31,6.31 323.09,3.98 368.11,2.66 4.59,-26.73 -6.86,-50.03 -38.18,-55.06 -54.4,-8.75 -86.36,-43.61 -92.19,-99.76 -8.32,-79.77 89.28,-192.76 137.77,-243.24 66.54,-69.3 39.42,-57.68 68.88,-19.64 52.14,67.31 149.33,28.47 156.37,-43.73 3.84,-39.34 -16.55,-63.61 -46.88,-42.47 -14.05,9.79 -5.98,25.45 -9.71,42.15 -1.93,8.62 -19.75,23.54 -29.41,24.47 -18.77,1.82 -72.75,-45.12 5.07,-82.59 46.9,-22.6 52.54,-18.46 103.72,-58.6 104.35,-81.86 176.01,-183.12 203.83,-330.18 7.67,-40.54 -13.23,-50.31 -50.66,-50.55 -71.64,-0.47 -143.28,0.1 -214.92,0.07 -5.87,-45.86 -3.89,-79.4 -28.37,-84.67 -149.88,-32.24 -263.75,-41.94 -419.71,-37.78 -52.96,1.4 -274.07,26.33 -298.24,46.69zm56.5 462.78c-6.45,-26.05 -30.78,-56.32 -47.35,-150.79 -5.15,-29.31 -8.67,-57.5 -13.19,-85.66 -1.26,-7.83 -5.5,-98.05 -9.88,-91.15l-7.93 -2.06c-2.63,-0.26 -10.42,0.09 -13.58,0.12l-179.31 -0.38c1.81,22.5 29.47,94.07 39.24,111.82 46.78,85 95.76,143.29 180.34,193.81 7.41,4.42 43.36,23.46 51.66,24.29zm626.14 -0.48c13.86,0.37 81.53,-43.7 93.9,-53.13 56.41,-43.03 102.21,-100.33 135.17,-164.78 8.45,-16.53 41.35,-92.78 40.17,-110.16 -22.8,-1.71 -192.24,-3.34 -203.51,0.84 -4.07,24.65 -3.18,64.03 -5.67,91.25 -2.4,26.39 -7.78,60.03 -13.12,86.13 -8.51,41.47 -19.25,76.45 -33.02,115.72 -4.77,13.59 -10.64,22.72 -13.92,34.13z"/>
   <path class="fil1" d="M586.24 1108.53c101.55,-38.62 76.69,-145.03 177.4,-291.14 42.52,-61.7 111.76,-131.08 184.5,-250.65 56.93,-93.58 88.27,-377.16 56.79,-430.3 -7.27,-5.15 -52.11,-6.44 -67.7,-4.53 13.3,56.85 -7.71,284.24 -30.71,345.1 -51.43,136.14 -187.17,430.51 -336.1,199.6 -113.22,-175.54 -99.08,-363.74 -101.43,-559.32 -24.8,-3.2 -142.77,7.88 -144.81,32.82 -40.35,491.35 200.28,553.85 285.16,735.48 30.96,66.26 42.38,171.7 -23.1,222.94z"/>
   <path class="fil2" d="M731.82 703.94c14.93,-1.74 40.03,-35.37 49.25,-46.81 49.12,-60.86 74.26,-108.62 100.18,-188.62 15.18,-46.85 27.98,-107.28 32.64,-157.97 2.35,-25.51 5.74,-170.28 -0.9,-186.97 -9.38,-6.99 -61.15,-9.87 -76.97,-11.28 -21.1,-1.88 -63.73,-7.79 -82.48,-5.75l12.21 147.86c10.53,195.32 9.63,294.64 -33.93,449.54z"/>
   <path class="fil2" d="M766.26 1097.71c-7.7,-9.76 -26.93,-11.56 -43.44,-35.63 -13.16,-19.2 -12.78,-33.78 -19.82,-57.48 -11,13.37 -11.28,55.12 -3.22,73.76 5.45,12.58 7.93,20.64 23.33,21.32 12.48,0.54 34.17,3.33 43.15,-1.97z"/>
   <path class="fil3" d="M363.28 1221.01c-4.7,13.24 -1.44,152.55 -1.15,193.36 70.17,0.72 570.16,2.73 575.41,-1.58 4.17,-3.44 2.87,-7.43 2.79,-19.61 -0.05,-8.29 -0.07,-16.58 -0.05,-24.87l-0.38 -147.76c-13.9,-3.21 -566.61,-2.1 -576.62,0.46z"/>
   <path class="fil3" d="M431.08 1202.12l169.52 1.63c77.79,-0.19 198.74,2.13 271.29,-1.06l1.91 -42.49 -442.32 -0.1c-3.41,9.4 -3.96,33.88 -0.4,42.02z"/>
  </g>
 </g>
</svg>
